<?xml version="1.0" standalone="no"?><!DOCTYPE svg PUBLIC "-//W3C//DTD SVG 1.1//EN" "http://www.w3.org/Graphics/SVG/1.1/DTD/svg11.dtd"><svg t="1747571343775" class="icon" viewBox="0 0 1024 1024" version="1.1" xmlns="http://www.w3.org/2000/svg" p-id="8456" xmlns:xlink="http://www.w3.org/1999/xlink" width="50" height="50"><path d="M452.864 759.296l37.44-85.76a330.368 330.368 0 0 1 168.128-170.304l103.04-45.76c32.832-14.528 32.832-62.208 0-76.8l-99.84-44.288a330.56 330.56 0 0 1-170.496-176L453.12 68.992a40.32 40.32 0 0 0-75.008 0l-37.952 91.392a330.56 330.56 0 0 1-170.56 176l-99.84 44.352c-32.768 14.528-32.768 62.208 0 76.736l103.04 45.76a330.304 330.304 0 0 1 168.128 170.24l37.504 85.76a40.32 40.32 0 0 0 74.368 0z m374.912 208.832l10.56-24.192a186.24 186.24 0 0 1 94.72-96l32.512-14.464a22.592 22.592 0 0 0 0-41.024l-30.656-13.632a186.432 186.432 0 0 1-96.128-99.264l-10.88-26.112a21.632 21.632 0 0 0-40.128 0l-10.88 26.112a186.368 186.368 0 0 1-96.128 99.2l-30.592 13.696a22.592 22.592 0 0 0 0 41.088l32.448 14.4a186.24 186.24 0 0 1 94.72 96l10.56 24.192c7.68 17.664 32.192 17.664 39.872 0z" p-id="8457" fill="#1296db"></path></svg>